<?xml version="1.0" standalone="no"?>
<!DOCTYPE svg PUBLIC "-//W3C//DTD SVG 20010904//EN"
 "http://www.w3.org/TR/2001/REC-SVG-20010904/DTD/svg10.dtd">
<svg version="1.0" xmlns="http://www.w3.org/2000/svg"
viewBox="0 0 112.000000 117.000000"
 preserveAspectRatio="xMidYMid meet">

<g transform="translate(0.000000,117.000000) scale(0.100000,-0.100000)"
fill="#000000" stroke="none">
<path d="M277 1070 c-4 -17 3 -22 46 -35 431 -125 425 -124 430 -99 4 21 -8
25 -227 88 -127 36 -234 66 -237 66 -4 0 -9 -9 -12 -20z"/>
<path d="M272 938 c32 -140 -47 -309 -175 -374 l-48 -25 36 -41 c67 -74 114
-214 115 -339 0 -57 15 -85 38 -70 6 4 36 94 66 200 52 185 53 194 38 221 -13
23 -14 33 -4 54 14 32 33 40 67 32 50 -13 53 -91 5 -107 -25 -9 -30 -23 -79
-197 -28 -103 -51 -197 -51 -209 l0 -23 395 0 395 0 0 25 0 25 -361 0 -360 0
18 31 c50 87 176 185 261 204 40 8 41 26 5 96 -56 108 -40 247 42 357 37 51
41 62 27 66 -77 23 -418 116 -428 116 -9 0 -9 -11 -2 -42z m211 -59 c78 -23
144 -43 145 -45 2 -1 -10 -31 -27 -66 -54 -112 -60 -226 -15 -337 9 -23 15
-43 13 -44 -2 -2 -29 -14 -58 -27 -31 -14 -83 -52 -118 -85 -35 -33 -63 -58
-63 -54 0 3 13 52 29 108 24 87 34 107 62 131 30 25 34 33 34 78 0 58 -19 85
-71 102 -40 14 -77 -1 -108 -43 -21 -29 -26 -88 -8 -110 7 -8 1 -46 -21 -125
-31 -114 -38 -121 -51 -48 -9 50 -50 141 -81 182 -23 31 -24 33 -6 39 36 11
114 100 145 165 24 51 32 82 34 143 2 42 9 77 14 77 5 0 73 -19 151 -41z"/>
</g>
</svg>
