<svg id="svg" xmlns="http://www.w3.org/2000/svg" xmlns:xlink="http://www.w3.org/1999/xlink" width="400" height="573.6842105263157" viewBox="0, 0, 400,573.6842105263157"><g id="svgg"><path id="path0" d="M135.318 31.575 C 132.994 40.464,136.781 43.321,159.704 49.975 C 386.391 115.773,383.131 115.017,385.559 102.315 C 387.708 91.076,381.715 88.739,266.195 55.767 C 126.074 15.774,138.834 18.132,135.318 31.575 M132.608 101.316 C 149.539 174.516,107.793 263.631,40.424 298.097 L 15.059 311.074 34.450 332.537 C 69.630 371.477,94.442 445.118,94.645 511.198 C 94.738 541.310,102.479 555.595,114.632 548.084 C 129.997 538.588,178.526 342.224,169.426 326.368 C 154.376 300.145,173.814 273.876,202.871 281.169 C 228.822 287.682,230.565 328.810,205.265 337.630 C 191.071 342.578,136.810 512.309,136.834 551.682 C 136.846 570.323,158.360 564.863,169.026 543.513 C 199.531 482.454,266.124 424.954,319.737 413.382 C 341.103 408.770,341.602 399.619,322.492 362.786 C 293.033 306.005,301.578 232.876,344.481 174.596 C 364.273 147.711,366.562 142.243,358.990 139.938 C 318.625 127.650,138.803 78.947,133.797 78.947 C 129.009 78.947,128.715 84.482,132.608 101.316 M243.842 132.303 C 284.861 144.280,319.243 154.773,320.247 155.620 C 321.252 156.468,314.800 172.129,305.910 190.423 C 277.161 249.584,274.399 309.480,297.730 367.790 C 302.598 379.956,305.692 390.498,304.606 391.216 C 303.520 391.934,289.729 398.349,273.958 405.471 C 258.101 412.633,230.459 432.580,212.116 450.098 C 193.873 467.521,178.947 480.368,178.947 478.647 C 178.947 451.308,211.666 365.605,226.985 352.816 C 272.272 315.009,227.635 233.350,175.623 258.852 C 146.100 273.327,129.653 318.128,146.438 338.352 C 150.182 342.864,146.875 362.783,135.490 404.290 C 119.092 464.073,115.077 467.796,108.204 429.587 C 103.466 403.244,82.187 355.241,65.619 333.519 C 53.451 317.566,53.249 316.303,62.412 313.395 C 104.613 300.001,153.984 215.453,157.056 151.316 C 158.130 128.882,161.316 110.526,164.136 110.526 C 166.956 110.526,202.824 120.326,243.842 132.303 " stroke="none" fill="#ffffff" fill-rule="evenodd"></path></g></svg>