<svg id="svg" xmlns="http://www.w3.org/2000/svg" xmlns:xlink="http://www.w3.org/1999/xlink" width="400" height="417.85714285714283" viewBox="0, 0, 400,417.85714285714283"><g id="svgg"><path id="path0" d="M98.966 35.712 C 97.389 41.744,99.958 43.682,115.514 48.197 C 269.337 92.846,267.125 92.333,268.772 83.714 C 270.230 76.087,266.163 74.501,187.775 52.128 C 92.693 24.989,101.351 26.590,98.966 35.712 M97.127 83.036 C 108.616 132.708,80.288 193.178,34.574 216.566 L 17.362 225.371 30.519 239.936 C 54.392 266.360,71.228 316.330,71.367 361.170 C 71.430 381.603,76.682 391.297,84.929 386.200 C 95.355 379.756,128.285 246.509,122.110 235.750 C 111.898 217.955,125.088 200.130,144.805 205.079 C 162.362 209.485,163.604 237.405,146.509 243.364 C 136.949 246.697,99.652 362.790,99.917 388.393 L 100.000 396.429 241.071 396.429 L 382.143 396.429 382.143 387.500 L 382.143 378.571 253.370 378.571 L 124.596 378.571 131.048 367.395 C 148.830 336.593,194.084 301.290,224.107 294.799 C 238.605 291.665,238.944 285.455,225.977 260.462 C 205.987 221.932,211.785 172.308,240.898 132.761 C 254.328 114.518,255.881 110.808,250.743 109.244 C 223.353 100.905,101.331 67.857,97.934 67.857 C 94.685 67.857,94.485 71.613,97.127 83.036 M172.607 104.063 C 200.441 112.190,223.772 119.310,224.453 119.885 C 225.135 120.460,220.757 131.087,214.725 143.501 C 195.217 183.646,193.342 224.290,209.174 263.857 C 212.477 272.113,214.577 279.266,213.840 279.754 C 213.103 280.241,203.744 284.594,193.043 289.427 C 182.283 294.287,163.526 307.822,151.079 319.710 C 138.700 331.532,128.571 340.250,128.571 339.082 C 128.571 320.531,150.773 262.375,161.168 253.696 C 191.899 228.042,161.610 172.630,126.315 189.935 C 106.282 199.758,95.122 230.158,106.511 243.882 C 109.052 246.943,106.808 260.460,99.083 288.625 C 87.955 329.193,85.231 331.719,80.567 305.791 C 77.352 287.916,62.912 255.342,51.670 240.602 C 43.413 229.777,43.276 228.920,49.494 226.946 C 78.130 217.858,111.632 160.486,113.716 116.964 C 114.445 101.741,116.608 89.286,118.521 89.286 C 120.435 89.286,144.773 95.935,172.607 104.063 " stroke="none" fill="#fff" fill-rule="evenodd"></path></g></svg>